<svg width="138" height="53" viewBox="0 0 138 53" fill="none" xmlns="http://www.w3.org/2000/svg">
<path d="M24.6369 38.5547L20.9688 28.5547H23.1782L26.3369 37.3697H25.2643L28.5678 28.5547H30.5306L33.7482 37.3697H32.6757L35.8934 28.5547H37.9688L34.2845 38.5493H32.0375L29.1363 30.7477H29.8763L26.9 38.5493L24.6369 38.5547Z" fill="white"/>
<path d="M43.4578 38.5539C42.4773 38.5689 41.5089 38.3475 40.6442 37.9107C39.8317 37.495 39.154 36.8787 38.6836 36.1276C38.2149 35.3395 37.9688 34.4508 37.9688 33.547C37.9688 32.6431 38.2149 31.7545 38.6836 30.9664C39.1554 30.2253 39.8285 29.6169 40.6331 29.2041C41.4996 28.7613 42.4727 28.5379 43.4578 28.5557C44.4517 28.5375 45.4339 28.7607 46.3101 29.2041C47.1171 29.6139 47.7909 30.223 48.2597 30.9664C48.7247 31.7575 48.9688 32.6474 48.9688 33.5522C48.9688 34.457 48.7247 35.3469 48.2597 36.138C47.7886 36.8859 47.1108 37.4987 46.299 37.9107C45.4248 38.3484 44.4472 38.5697 43.4578 38.5539ZM43.4578 36.6191C44.0113 36.6298 44.5579 36.5017 45.0418 36.2478C45.5146 35.9987 45.8997 35.6242 46.1495 35.1706C46.4231 34.6718 46.5601 34.1164 46.5483 33.5548C46.5635 32.9929 46.4262 32.4367 46.1495 31.939C45.8946 31.497 45.5099 31.1339 45.0418 30.8932C44.5618 30.646 44.0239 30.5165 43.4772 30.5165C42.9305 30.5165 42.3925 30.646 41.9125 30.8932C41.4473 31.1376 41.0637 31.4998 40.8048 31.939C40.5219 32.4348 40.3806 32.9917 40.395 33.5548C40.3839 34.1176 40.5249 34.6737 40.8048 35.1706C41.0579 35.6219 41.4422 35.9956 41.9125 36.2478C42.3835 36.4992 42.9169 36.6273 43.4578 36.6191Z" fill="white"/>
<path d="M54.9588 38.554C54.0674 38.5686 53.1872 38.3472 52.401 37.9108C51.6623 37.4951 51.0462 36.8788 50.6186 36.1277C50.1925 35.3396 49.9688 34.451 49.9688 33.5471C49.9688 32.6433 50.1925 31.7546 50.6186 30.9665C51.0494 30.2253 51.663 29.6169 52.396 29.2043C53.1816 28.7608 54.0648 28.5374 54.9588 28.5559C55.8619 28.536 56.7548 28.7575 57.5518 29.1991C58.2868 29.6088 58.901 30.2178 59.3292 30.9613C59.7487 31.7535 59.9688 32.643 59.9688 33.5471C59.9688 34.4513 59.7487 35.3407 59.3292 36.1329C58.8991 36.8812 58.2813 37.4939 57.5417 37.9056C56.7474 38.3451 55.8587 38.5682 54.9588 38.554ZM54.9588 36.6192C55.462 36.6307 55.9591 36.5025 56.3988 36.248C56.8286 35.9989 57.1787 35.6244 57.4058 35.1708C57.6506 34.6707 57.7733 34.1158 57.7633 33.555C57.7763 32.9938 57.6533 32.4382 57.4058 31.9392C57.1724 31.4984 56.8232 31.1357 56.3988 30.8933C55.9625 30.6462 55.4734 30.5167 54.9764 30.5167C54.4794 30.5167 53.9903 30.6462 53.554 30.8933C53.1311 31.1377 52.7823 31.5 52.547 31.9392C52.2913 32.4354 52.1646 32.9923 52.1795 33.555C52.1678 34.1172 52.2943 34.6733 52.547 35.1708C52.7771 35.6221 53.1265 35.9958 53.554 36.248C53.9824 36.4986 54.4671 36.6267 54.9588 36.6192Z" fill="white"/>
<path d="M60.9688 30.5956V28.7759H67.324V30.5956H60.9688ZM65.8247 38.547C64.9415 38.6074 64.0703 38.3115 63.3993 37.7231C63.0977 37.4016 62.8655 37.0193 62.7174 36.6009C62.5694 36.1824 62.5088 35.7371 62.5397 35.2934V26.5547H64.7553V35.2204C64.7312 35.6125 64.8599 35.9985 65.1135 36.2945C65.244 36.4262 65.4004 36.5282 65.5724 36.5938C65.7443 36.6594 65.928 36.6871 66.1113 36.6751C66.5495 36.6922 66.9794 36.5499 67.324 36.2736L67.9687 37.8952C67.6767 38.1239 67.3427 38.2906 66.9863 38.3853C66.6083 38.4937 66.2174 38.5481 65.8247 38.547Z" fill="white"/>
<path d="M75.7325 28.3493C76.4867 28.3337 77.234 28.4948 77.9136 28.8196C78.551 29.1437 79.0754 29.6503 79.4186 30.2736C79.8143 31.0495 80.0021 31.9132 79.9639 32.7817V38.5547H77.581V33.0844C77.6391 32.3626 77.4145 31.6464 76.9539 31.0844C76.7197 30.8555 76.4392 30.6784 76.1309 30.5647C75.8226 30.451 75.4936 30.4034 75.1654 30.425C74.6502 30.4153 74.1406 30.5323 73.6822 30.7655C73.2508 30.9877 72.9014 31.3397 72.6843 31.7709C72.4287 32.2978 72.307 32.8786 72.3299 33.4628V38.5547H69.9688V24.5547H72.3299V31.2142L71.8336 30.3655C72.1788 29.7262 72.7136 29.2073 73.3659 28.879C74.0981 28.5104 74.9115 28.3283 75.7325 28.3493Z" fill="white"/>
<path d="M87.4745 38.5538C86.5008 38.5688 85.5392 38.3475 84.6807 37.911C83.8738 37.4955 83.2009 36.8795 82.7338 36.1289C82.3663 35.5575 82.1245 34.9212 82.0231 34.2585C81.9216 33.5958 81.9626 32.9204 82.1435 32.2732C82.3245 31.626 82.6416 31.0204 83.0758 30.4929C83.51 29.9654 84.0522 29.5271 84.6697 29.2043C85.53 28.7618 86.4963 28.5385 87.4745 28.5563C88.4689 28.5334 89.4526 28.7568 90.3288 29.2043C91.1327 29.6122 91.804 30.2212 92.2701 30.9655C92.7284 31.7572 92.9688 32.6462 92.9688 33.5498C92.9688 34.4534 92.7284 35.3424 92.2701 36.1341C91.8024 36.8816 91.1294 37.494 90.3233 37.9057C89.4469 38.348 88.4665 38.571 87.4745 38.5538ZM87.4745 36.6201C88.0241 36.6308 88.5668 36.5028 89.0474 36.2491C89.5169 36.0001 89.8993 35.6258 90.1473 35.1725C90.4189 34.674 90.555 34.1189 90.5432 33.5576C90.5584 32.9961 90.4221 32.4402 90.1473 31.9428C89.8941 31.501 89.5122 31.1381 89.0474 30.8976C88.5698 30.6506 88.0347 30.5212 87.491 30.5212C86.9472 30.5212 86.4121 30.6506 85.9346 30.8976C85.4737 31.1431 85.0931 31.5048 84.8346 31.9428C84.5579 32.4397 84.4197 32.9956 84.4332 33.5576C84.4231 34.1193 84.5611 34.6745 84.8346 35.1725C85.0877 35.6223 85.4689 35.9954 85.9346 36.2491C86.4042 36.5002 86.9356 36.6283 87.4745 36.6201Z" fill="white"/>
<path d="M107.014 28.5664C107.724 28.5489 108.428 28.7067 109.067 29.0266C109.662 29.3395 110.146 29.8374 110.452 30.4497C110.819 31.211 110.996 32.0549 110.965 32.9045V38.5547H108.743V33.2008C108.798 32.4986 108.597 31.8006 108.179 31.2433C107.973 31.0228 107.723 30.8509 107.447 30.7395C107.17 30.628 106.874 30.5797 106.577 30.5979C106.124 30.5886 105.676 30.7037 105.279 30.9312C104.896 31.1596 104.59 31.5029 104.401 31.9152C104.178 32.4285 104.071 32.9876 104.088 33.5499V38.5547H101.866V33.2008C101.918 32.4989 101.717 31.8018 101.302 31.2433C101.096 31.0228 100.846 30.8509 100.57 30.7395C100.293 30.628 99.9968 30.5797 99.7005 30.5979C99.2467 30.5886 98.7987 30.7037 98.4021 30.9312C98.017 31.1566 97.7101 31.5007 97.5245 31.9152C97.2982 32.4277 97.1894 32.9871 97.2063 33.5499V38.5547H94.9688V28.688H97.0985V31.3332L96.7034 30.5397C97.02 29.9204 97.51 29.4135 98.1096 29.0848C98.7624 28.7243 99.4938 28.5422 100.234 28.5558C101.06 28.5365 101.872 28.7744 102.564 29.2382C103.252 29.7395 103.72 30.4998 103.868 31.3544L103.011 31.0211C103.327 30.2758 103.866 29.6547 104.55 29.2488C105.293 28.7875 106.147 28.551 107.014 28.5664Z" fill="white"/>
<path d="M118.367 38.5531C117.38 38.5756 116.402 38.3547 115.521 37.91C114.741 37.5057 114.089 36.8917 113.64 36.1375C113.185 35.3537 112.953 34.4604 112.97 33.5545C112.954 32.6513 113.178 31.76 113.619 30.9715C114.045 30.2311 114.664 29.6202 115.411 29.2042C116.212 28.7604 117.116 28.5367 118.031 28.5558C118.919 28.5404 119.795 28.7567 120.572 29.1833C121.309 29.5978 121.917 30.2076 122.328 30.9453C122.77 31.769 122.991 32.6934 122.967 33.6277C122.967 33.7113 122.967 33.8211 122.967 33.9466C122.967 34.0721 122.967 34.1871 122.941 34.2865H114.783V32.7702H121.715L120.798 33.246C120.821 32.735 120.705 32.2274 120.462 31.7767C120.236 31.3572 119.897 31.0094 119.483 30.7728C119.036 30.5257 118.531 30.403 118.021 30.4172C117.504 30.4029 116.993 30.5237 116.538 30.7676C116.11 30.997 115.763 31.3508 115.542 31.7819C115.3 32.2484 115.18 32.768 115.191 33.293V33.659C115.178 34.2078 115.313 34.7499 115.584 35.2277C115.848 35.6793 116.24 36.0431 116.711 36.2734C117.238 36.5329 117.821 36.662 118.408 36.6499C118.916 36.6586 119.42 36.5662 119.891 36.378C120.334 36.1929 120.733 35.9188 121.065 35.5728L122.307 36.995C121.85 37.5114 121.277 37.9127 120.635 38.1662C119.911 38.4382 119.141 38.5695 118.367 38.5531Z" fill="white"/>
<path d="M128.343 38.5507C127.503 38.5558 126.666 38.4482 125.858 38.2312C125.189 38.0683 124.552 37.8067 123.969 37.4559L124.897 35.7169C125.409 36.0233 125.968 36.2547 126.554 36.4031C127.185 36.5796 127.839 36.6696 128.498 36.6702C129.057 36.7058 129.617 36.6086 130.127 36.3874C130.28 36.3162 130.409 36.206 130.5 36.0691C130.591 35.9321 130.639 35.7739 130.641 35.6121C130.647 35.4896 130.617 35.3679 130.556 35.2599C130.495 35.152 130.404 35.0619 130.293 34.9993C130.014 34.8398 129.707 34.7314 129.387 34.6797C129.019 34.6064 128.604 34.5383 128.144 34.4755C127.683 34.4167 127.226 34.3345 126.774 34.2293C126.34 34.1332 125.921 33.9798 125.532 33.7736C125.163 33.5764 124.852 33.2957 124.626 32.9564C124.374 32.5418 124.253 32.0672 124.278 31.5893C124.267 31.0112 124.461 30.4464 124.83 29.9864C125.247 29.5101 125.79 29.1483 126.404 28.9388C127.17 28.6678 127.984 28.538 128.801 28.5564C129.506 28.558 130.208 28.6335 130.895 28.7816C131.52 28.906 132.121 29.1197 132.678 29.4154L131.734 31.1493C131.278 30.8917 130.783 30.7042 130.265 30.594C129.779 30.4906 129.283 30.4379 128.785 30.4369C128.225 30.4025 127.665 30.5072 127.161 30.7407C127.002 30.8081 126.866 30.9164 126.768 31.0535C126.67 31.1905 126.615 31.3507 126.609 31.5159C126.601 31.6446 126.629 31.7729 126.689 31.8885C126.749 32.0042 126.839 32.1031 126.951 32.1759C127.231 32.3396 127.54 32.4533 127.862 32.5112C128.231 32.595 128.645 32.6683 129.105 32.7312C129.558 32.7993 130.011 32.8831 130.464 32.9878C130.895 33.0869 131.312 33.2346 131.706 33.4278C132.08 33.6136 132.395 33.8879 132.623 34.224C132.871 34.6286 132.99 35.0925 132.966 35.5597C132.983 36.137 132.788 36.7019 132.413 37.1574C131.986 37.6341 131.434 37.9955 130.812 38.205C130.018 38.4613 129.181 38.5784 128.343 38.5507Z" fill="white"/>
<path d="M45.8648 18.4609L30.013 5.72115C29.8827 5.61362 29.7181 5.55469 29.548 5.55469C29.378 5.55469 29.2134 5.61362 29.083 5.72115L6.22477 24.6774C6.11148 24.7725 6.03048 24.8995 5.99266 25.0413C5.95484 25.183 5.96202 25.3328 6.01323 25.4705C6.06444 25.6081 6.15722 25.727 6.27911 25.8112C6.40099 25.8954 6.54614 25.9409 6.69504 25.9415H12.444C12.6373 25.9415 12.8228 26.0171 12.9596 26.1517C13.0963 26.2863 13.1731 26.4689 13.1731 26.6593V47.8368C13.1731 48.0272 13.25 48.2098 13.3867 48.3444C13.5235 48.4791 13.7089 48.5547 13.9023 48.5547H70.9687" stroke="white" stroke-width="5" stroke-miterlimit="10" stroke-linecap="round"/>
</svg>
