<svg width="22" height="22" viewBox="0 0 22 22" fill="none" xmlns="http://www.w3.org/2000/svg">
<path d="M19.991 9.20731H19.2526V9.16927H11.0026V12.8359H16.1831C15.4274 14.9704 13.3965 16.5026 11.0026 16.5026C7.96523 16.5026 5.5026 14.04 5.5026 11.0026C5.5026 7.96523 7.96523 5.5026 11.0026 5.5026C12.4046 5.5026 13.6802 6.03152 14.6514 6.89548L17.2442 4.30269C15.607 2.7769 13.4171 1.83594 11.0026 1.83594C5.94031 1.83594 1.83594 5.94031 1.83594 11.0026C1.83594 16.0649 5.94031 20.1693 11.0026 20.1693C16.0649 20.1693 20.1693 16.0649 20.1693 11.0026C20.1693 10.388 20.106 9.78802 19.991 9.20731Z" fill="#FFC107"/>
<path d="M2.89062 6.73598L5.90233 8.94469C6.71725 6.9271 8.69083 5.5026 11.0004 5.5026C12.4024 5.5026 13.678 6.03152 14.6492 6.89548L17.242 4.30269C15.6048 2.7769 13.4149 1.83594 11.0004 1.83594C7.47946 1.83594 4.42604 3.82373 2.89062 6.73598Z" fill="#FF3D00"/>
<path d="M10.9966 20.168C13.3643 20.168 15.5157 19.2618 17.1424 17.7883L14.3053 15.3875C13.3542 16.1113 12.1917 16.5026 10.9966 16.5013C8.61231 16.5013 6.58785 14.981 5.82519 12.8594L2.83594 15.1625C4.35302 18.1311 7.43394 20.168 10.9966 20.168Z" fill="#4CAF50"/>
<path d="M19.9884 9.2021H19.25V9.16406H11V12.8307H16.1805C15.819 13.8466 15.1678 14.7343 14.3073 15.3841L14.3087 15.3832L17.1458 17.7839C16.945 17.9664 20.1667 15.5807 20.1667 10.9974C20.1667 10.3828 20.1034 9.78281 19.9884 9.2021Z" fill="#1976D2"/>
</svg>
